:FULLY-SPECIFIED
:FORCE-ALL-JOINTS-BE-3DOF
:DEGREES
1835
root 4.47343 13.9822 27.8607 -26.8379 59.8019 -21.6304
lfemur -44.3353 24.3613 1.74928
ltibia 62.9866 -0 0
lfoot 1.22024 -3.19477 -0.458325
ltoes -18.4809 0 0
rfemur -1.63176 -1.64851 18.5001
rtibia 60.2136 -0 0
rfoot -29.9207 -30.6597 0.00329493
rtoes -23.8988 0 0
lowerback 18.9068 5.04149 1.79531
upperback 1.58913 7.66028 4.9104
thorax -9.34095 3.75479 2.23588
lowerneck -4.45125 6.56452 -0.0885557
upperneck 7.02305 8.82242 0.485718
head 3.09675 4.40051 0.497662
lclavicle 2.09615e-16 -6.63531e-15 5.82223e-31
lhumerus 51.0082 2.57123 82.1831
lradius 20.4391 -0 0
lwrist -52.8696 0 0
lhand -32.9176 54.964 0.070943
lfingers 7.12502 -0 0
lthumb -6.9062 61.496 -1.77204
rclavicle 2.09615e-16 -6.63531e-15 5.82223e-31
rhumerus -69.1599 14.9534 -75.669
rradius 123.511 -0 0
rwrist 13.0684 180 180
rhand -39.8797 73.0962 -6.29709
rfingers 7.12502 -0 0
rthumb -12.7942 43.9148 -5.99105
1836
root 4.43848 13.9844 27.8686 -27.0915 60.2069 -21.9725
lfemur -44.4528 24.364 1.6021
ltibia 63.1802 -0 0
lfoot 1.11431 -3.04617 -0.476015
ltoes -18.5096 0 0
rfemur -1.78617 -1.74687 18.5177
rtibia 60.2614 -0 0
rfoot -29.9323 -30.6696 0.00342175
rtoes -23.9156 0 0
lowerback 18.8846 5.00415 1.82273
upperback 1.57593 7.61754 4.90998
thorax -9.33946 3.73348 2.23185
lowerneck -4.43688 6.6037 -0.0521757
upperneck 6.98636 8.87833 0.417904
head 3.0907 4.42674 0.469853
lclavicle 1.1015e-16 -6.43204e-15 6.0463e-31
lhumerus 50.7139 2.3166 81.848
lradius 21.001 -0 0
lwrist -52.4185 0 0
lhand -32.8612 55.0076 0.0736744
lfingers 7.12502 -0 0
lthumb -6.87068 60.4788 -1.84748
rclavicle 1.1015e-16 -6.43204e-15 6.0463e-31
rhumerus -69.0972 15.0744 -75.7929
rradius 123.4 -0 0
rwrist 12.2317 180 180
rhand -39.6534 72.3684 -6.55458
rfingers 7.12502 -0 0
rthumb -12.5744 43.1933 -6.23556
1837
root 4.40353 13.9866 27.8764 -27.3532 60.6112 -22.3225
lfemur -44.5703 24.3665 1.45492
ltibia 63.3738 -0 0
lfoot 1.00834 -2.89754 -0.49343
ltoes -18.5383 0 0
rfemur -1.94062 -1.84517 18.5355
rtibia 60.3093 -0 0
rfoot -29.944 -30.6794 0.00354656
rtoes -23.9324 0 0
lowerback 18.8625 4.96681 1.85017
upperback 1.56273 7.5748 4.90958
thorax -9.33797 3.71217 2.22782
lowerneck -4.4225 6.64288 -0.015783
upperneck 6.9496 8.93419 0.350043
head 3.08463 4.45296 0.442039
lclavicle 1.06856e-17 -6.22878e-15 6.26684e-31
lhumerus 50.4212 2.06026 81.5142
lradius 21.5629 -0 0
lwrist -51.9674 0 0
lhand -32.8048 55.0512 0.0763629
lfingers 7.12502 -0 0
lthumb -6.83383 59.4615 -1.92227
rclavicle 1.06856e-17 -6.22878e-15 6.26684e-31
rhumerus -69.0348 15.1955 -75.9167
rradius 123.289 -0 0
rwrist 11.3951 180 180
rhand -39.4236 71.6392 -6.80919
rfingers 7.12502 -0 0
rthumb -12.3515 42.4705 -6.47729
1838
root 4.36858 13.9889 27.8843 -27.6234 61.0147 -22.6808
lfemur -44.6878 24.3687 1.30773
ltibia 63.5674 -0 0
lfoot 0.902315 -2.74888 -0.510571
ltoes -18.567 0 0
rfemur -2.09511 -1.94343 18.5536
rtibia 60.3571 -0 0
rfoot -29.9556 -30.6893 0.00366938
rtoes -23.9492 0 0
lowerback 18.8403 4.92949 1.87761
upperback 1.54954 7.53206 4.90919
thorax -9.33648 3.69087 2.22379
lowerneck -4.40808 6.68204 0.0206226
upperneck 6.91277 8.99 0.282136
head 3.07855 4.47918 0.414222
lclavicle -8.87792e-17 -6.02552e-15 6.48385e-31
lhumerus 50.13 1.80223 81.1818
lradius 22.1249 -0 0
lwrist -51.5163 0 0
lhand -32.7484 55.0948 0.0790085
lfingers 7.12502 -0 0
lthumb -6.79565 58.4441 -1.99639
rclavicle -8.87792e-17 -6.02552e-15 6.48385e-31
rhumerus -68.9726 15.3167 -76.0405
rradius 123.178 -0 0
rwrist 10.5584 180 180
rhand -39.1906 70.9086 -7.06087
rfingers 7.12502 -0 0
rthumb -12.1253 41.7465 -6.7162
1839
root 4.33363 13.9911 27.8921 -27.9022 61.4173 -23.0477
lfemur -44.8054 24.3707 1.16052
ltibia 63.761 -0 0
lfoot 0.796248 -2.60018 -0.527436
ltoes -18.5957 0 0
rfemur -2.24965 -2.04163 18.572
rtibia 60.405 -0 0
rfoot -29.9672 -30.6991 0.0037902
rtoes -23.966 0 0
lowerback 18.8181 4.89217 1.90507
upperback 1.53634 7.48932 4.90881
thorax -9.33498 3.66956 2.21976
lowerneck -4.39364 6.7212 0.057041
upperneck 6.87586 9.04578 0.214182
head 3.07246 4.5054 0.3864
lclavicle -1.88244e-16 -5.82225e-15 6.69733e-31
lhumerus 49.8404 1.54252 80.8508
lradius 22.6868 -0 0
lwrist -51.0652 0 0
lhand -32.692 55.1384 0.0816112
lfingers 7.12502 -0 0
lthumb -6.75617 57.4266 -2.06982
rclavicle -1.88244e-16 -5.82225e-15 6.69733e-31
rhumerus -68.9107 15.4381 -76.1642
rradius 123.067 -0 0
rwrist 9.72172 180 180
rhand -38.9541 70.1765 -7.30958
rfingers 7.12502 -0 0
rthumb -11.8961 41.0211 -6.95225
1840
root 4.29867 13.9934 27.9 -28.1902 61.819 -23.4235
lfemur -44.9229 24.3723 1.01332
ltibia 63.9546 -0 0
lfoot 0.690139 -2.45145 -0.544026
ltoes -18.6244 0 0
rfemur -2.40422 -2.13979 18.5906
rtibia 60.4528 -0 0
rfoot -29.9788 -30.7089 0.00390903
rtoes -23.9828 0 0
lowerback 18.7959 4.85487 1.93254
upperback 1.52315 7.44658 4.90843
thorax -9.33348 3.64826 2.21573
lowerneck -4.37918 6.76035 0.0934723
upperneck 6.83888 9.10151 0.146181
head 3.06635 4.53161 0.358575
lclavicle -2.87709e-16 -5.61899e-15 6.90729e-31
lhumerus 49.5523 1.28114 80.5212
lradius 23.2488 -0 0
lwrist -50.6141 0 0
lhand -32.6356 55.182 0.0841709
lfingers 7.12502 -0 0
lthumb -6.71538 56.409 -2.14255
rclavicle -2.87709e-16 -5.61899e-15 6.90729e-31
rhumerus -68.849 15.5596 -76.2879
rradius 122.957 -0 0
rwrist 8.88506 180 180
rhand -38.7144 69.443 -7.55526
rfingers 7.12502 -0 0
rthumb -11.6637 40.2944 -7.1854
1841
root 4.26372 13.9956 27.9078 -28.4876 62.2198 -23.8087
lfemur -45.0404 24.3737 0.866107
ltibia 64.1482 -0 0
lfoot 0.583986 -2.30269 -0.560341
ltoes -18.6531 0 0
rfemur -2.55883 -2.2379 18.6095
rtibia 60.5006 -0 0
rfoot -29.9905 -30.7188 0.00402586
rtoes -23.9996 0 0
lowerback 18.7737 4.81758 1.96003
upperback 1.50996 7.40384 4.90807
thorax -9.33199 3.62695 2.2117
lowerneck -4.36469 6.79948 0.129916
upperneck 6.80183 9.1572 0.0781334
head 3.06024 4.55782 0.330746
lclavicle -3.87173e-16 -5.41573e-15 7.11371e-31
lhumerus 49.2658 1.01811 80.1928
lradius 23.8107 -0 0
lwrist -50.163 0 0
lhand -32.5792 55.2256 0.0866876
lfingers 7.12502 -0 0
lthumb -6.6733 55.3914 -2.21453
rclavicle -3.87173e-16 -5.41573e-15 7.11371e-31
rhumerus -68.7875 15.6812 -76.4114
rradius 122.846 -0 0
rwrist 8.04839 180 180
rhand -38.4713 68.7081 -7.79788
rfingers 7.12502 -0 0
rthumb -11.4283 39.5664 -7.4156
1842
root 4.22877 13.9978 27.9157 -28.7949 62.6197 -24.2035
lfemur -45.1579 24.3748 0.718891
ltibia 64.3417 -0 0
lfoot 0.477791 -2.1539 -0.57638
ltoes -18.6818 0 0
rfemur -2.71349 -2.33595 18.6286
rtibia 60.5485 -0 0
rfoot -30.0021 -30.7286 0.00414069
rtoes -24.0164 0 0
lowerback 18.7515 4.78029 1.98753
upperback 1.49677 7.3611 4.90772
thorax -9.33049 3.60565 2.20766
lowerneck -4.35017 6.83861 0.166374
upperneck 6.76471 9.21284 0.0100382
head 3.0541 4.58403 0.302914
lclavicle -4.86638e-16 -5.21246e-15 7.31661e-31
lhumerus 48.9807 0.753447 79.8659
lradius 24.3726 -0 0
lwrist -49.712 0 0
lhand -32.5227 55.2692 0.0891615
lfingers 7.12502 -0 0
lthumb -6.62995 54.3736 -2.28576
rclavicle -4.86638e-16 -5.21246e-15 7.31661e-31
rhumerus -68.7263 15.8029 -76.535
rradius 122.735 -0 0
rwrist 7.21173 180 180
rhand -38.225 67.9717 -8.03739
rfingers 7.12502 -0 0
rthumb -11.1898 38.837 -7.64282
1843
root 4.19382 14.0001 27.9236 -29.1125 63.0185 -24.6085
lfemur -45.2755 24.3757 0.571672
ltibia 64.5353 -0 0
lfoot 0.371554 -2.00508 -0.592143
ltoes -18.7105 0 0
rfemur -2.86819 -2.43396 18.648
rtibia 60.5963 -0 0
rfoot -30.0137 -30.7385 0.00425353
rtoes -24.0332 0 0
lowerback 18.7292 4.74302 2.01504
upperback 1.48358 7.31836 4.90738
thorax -9.32898 3.58435 2.20363
lowerneck -4.33562 6.87773 0.202844
upperneck 6.72751 9.26844 -0.0581042
head 3.04796 4.61024 0.275077
lclavicle -5.86103e-16 -5.0092e-15 7.51598e-31
lhumerus 48.6972 0.487166 79.5402
lradius 24.9346 -0 0
lwrist -49.2609 0 0
lhand -32.4663 55.3129 0.0915923
lfingers 7.12502 -0 0
lthumb -6.58533 53.3557 -2.35621
rclavicle -5.86103e-16 -5.0092e-15 7.51598e-31
rhumerus -68.6653 15.9248 -76.6584
rradius 122.624 -0 0
rwrist 6.37506 180 180
rhand -37.9755 67.2338 -8.27374
rfingers 7.12502 -0 0
rthumb -10.9482 38.1063 -7.867
1844
root 4.15887 14.0023 27.9314 -29.4408 63.4164 -25.024
lfemur -45.393 24.3762 0.42445
ltibia 64.7289 -0 0
lfoot 0.265277 -1.85623 -0.60763
ltoes -18.7392 0 0
rfemur -3.02294 -2.53191 18.6677
rtibia 60.6442 -0 0
rfoot -30.0254 -30.7483 0.00436437
rtoes -24.05 0 0
lowerback 18.707 4.70576 2.04256
upperback 1.47039 7.27562 4.90705
thorax -9.32748 3.56304 2.1996
lowerneck -4.32105 6.91684 0.239327
upperneck 6.69024 9.324 -0.126294
head 3.0418 4.63644 0.247237
lclavicle -6.85568e-16 -4.80594e-15 7.71181e-31
lhumerus 48.4153 0.219282 79.2159
lradius 25.4965 -0 0
lwrist -48.8098 0 0
lhand -32.4099 55.3565 0.0939802
lfingers 7.12502 -0 0
lthumb -6.53947 52.3377 -2.42585
rclavicle -6.85568e-16 -4.80594e-15 7.71181e-31
rhumerus -68.6045 16.0468 -76.7818
rradius 122.513 -0 0
rwrist 5.5384 180 180
rhand -37.7227 66.4945 -8.50689
rfingers 7.12502 -0 0
rthumb -10.7037 37.3743 -8.08811
1845
root 4.12391 14.0046 27.9393 -29.7802 63.8131 -25.4505
lfemur -45.5106 24.3765 0.277227
ltibia 64.9225 -0 0
lfoot 0.158959 -1.70736 -0.622841
ltoes -18.7679 0 0
rfemur -3.17773 -2.62981 18.6877
rtibia 60.692 -0 0
rfoot -30.037 -30.7581 0.00447321
rtoes -24.0668 0 0
lowerback 18.6847 4.66851 2.0701
upperback 1.45721 7.23288 4.90672
thorax -9.32598 3.54174 2.19557
lowerneck -4.30645 6.95594 0.275823
upperneck 6.6529 9.37951 -0.194531
head 3.03563 4.66264 0.219393
lclavicle -7.85033e-16 -4.60267e-15 7.90412e-31
lhumerus 48.1348 -0.050191 78.8929
lradius 26.0584 -0 0
lwrist -48.3587 0 0
lhand -32.3535 55.4001 0.0963252
lfingers 7.12502 -0 0
lthumb -6.49238 51.3195 -2.49467
rclavicle -7.85033e-16 -4.60267e-15 7.90412e-31
rhumerus -68.544 16.1689 -76.9052
rradius 122.402 -0 0
rwrist 4.70173 180 180
rhand -37.4668 65.7537 -8.73678
rfingers 7.12502 -0 0
rthumb -10.4562 36.6409 -8.30611
